<svg xmlns="http://www.w3.org/2000/svg" xmlns:xlink="http://www.w3.org/1999/xlink" width="1080" zoomAndPan="magnify" viewBox="0 0 810 809.999993" height="1080" preserveAspectRatio="xMidYMid meet" version="1.0"><defs><clipPath id="c42c5498fc"><path d="M 10.078125 9.535156 L 800.953125 9.535156 L 800.953125 800.410156 L 10.078125 800.410156 Z M 10.078125 9.535156 " clip-rule="nonzero"/></clipPath><clipPath id="6c5e228fee"><path d="M 405.515625 9.535156 C 187.121094 9.535156 10.078125 186.578125 10.078125 404.972656 C 10.078125 623.367188 187.121094 800.410156 405.515625 800.410156 C 623.910156 800.410156 800.953125 623.367188 800.953125 404.972656 C 800.953125 186.578125 623.910156 9.535156 405.515625 9.535156 Z M 405.515625 9.535156 " clip-rule="nonzero"/></clipPath><clipPath id="fb0d2eb2c7"><path d="M 612.089844 300.648438 L 783.582031 300.648438 L 783.582031 488 L 612.089844 488 Z M 612.089844 300.648438 " clip-rule="nonzero"/></clipPath><clipPath id="c1cffb73f9"><path d="M 650.339844 300.648438 L 745.332031 300.648438 C 755.476562 300.648438 765.207031 304.675781 772.378906 311.851562 C 779.554688 319.023438 783.582031 328.753906 783.582031 338.898438 L 783.582031 449.503906 C 783.582031 459.648438 779.554688 469.378906 772.378906 476.550781 C 765.207031 483.726562 755.476562 487.753906 745.332031 487.753906 L 650.339844 487.753906 C 640.195312 487.753906 630.464844 483.726562 623.292969 476.550781 C 616.117188 469.378906 612.089844 459.648438 612.089844 449.503906 L 612.089844 338.898438 C 612.089844 328.753906 616.117188 319.023438 623.292969 311.851562 C 630.464844 304.675781 640.195312 300.648438 650.339844 300.648438 Z M 650.339844 300.648438 " clip-rule="nonzero"/></clipPath><clipPath id="858c992e89"><path d="M 143 16 L 784 16 L 784 584 L 143 584 Z M 143 16 " clip-rule="nonzero"/></clipPath><clipPath id="62901286af"><path d="M 632.699219 583.082031 L 142.238281 271.332031 L 352.257812 -59.085938 L 842.71875 252.664062 Z M 632.699219 583.082031 " clip-rule="nonzero"/></clipPath><clipPath id="49037f000a"><path d="M 675.570312 155.074219 C 652.84375 135.402344 625.871094 114.828125 597.871094 97.03125 C 569.875 79.234375 541.601562 64.207031 514.40625 52.148438 C 513.804688 51.929688 513.277344 51.59375 512.675781 51.375 C 409.96875 7.003906 316.300781 2.679688 284.8125 49.296875 L 143.265625 271.984375 L 632.699219 583.082031 L 774.140625 360.558594 C 803.238281 311.859375 760.617188 229.554688 675.570312 155.074219 Z M 675.570312 155.074219 " clip-rule="nonzero"/></clipPath><clipPath id="bef6bc11f9"><path d="M 36 74 L 782 74 L 782 691 L 36 691 Z M 36 74 " clip-rule="nonzero"/></clipPath><clipPath id="f905c1d7b8"><path d="M 646.644531 690.421875 L 35.683594 302.082031 L 231.769531 -6.414062 L 842.730469 381.929688 Z M 646.644531 690.421875 " clip-rule="nonzero"/></clipPath><clipPath id="958635b2a9"><path d="M 635.417969 258.8125 C 606.519531 235.21875 572.527344 210.183594 537.640625 188.007812 C 502.753906 165.832031 467.855469 146.589844 434.550781 130.648438 C 433.820312 130.347656 433.160156 129.929688 432.429688 129.625 C 306.785156 70.675781 196.21875 55.613281 164.71875 101.539062 L 36.796875 302.789062 L 646.644531 690.421875 L 774.46875 489.320312 C 802.921875 440.917969 743.667969 348.039062 635.417969 258.8125 Z M 635.417969 258.8125 " clip-rule="nonzero"/></clipPath><clipPath id="df45583b9a"><path d="M 27 175 L 742 175 L 742 720 L 27 720 Z M 27 175 " clip-rule="nonzero"/></clipPath><clipPath id="6ffe6e8557"><path d="M 113.183594 175.101562 L 742.460938 566.101562 L 596.546875 800.933594 L -32.730469 409.933594 Z M 113.183594 175.101562 " clip-rule="nonzero"/></clipPath><clipPath id="47f978113a"><path d="M 180.71875 533.957031 C 210.605469 557.722656 245.707031 582.9375 281.65625 605.277344 C 317.605469 627.613281 353.507812 647 387.714844 663.0625 C 388.464844 663.367188 389.144531 663.785156 389.894531 664.089844 C 518.925781 723.488281 631.695312 738.699219 661.722656 694.15625 L 741.617188 565.578125 L 113.183594 175.101562 L 33.351562 303.582031 C 6.511719 350.5625 68.738281 444.089844 180.71875 533.957031 Z M 180.71875 533.957031 " clip-rule="nonzero"/></clipPath><clipPath id="e325197b64"><path d="M 10.078125 9.535156 L 800.953125 9.535156 L 800.953125 800.410156 L 10.078125 800.410156 Z M 10.078125 9.535156 " clip-rule="nonzero"/></clipPath><clipPath id="20b47d7ba7"><path d="M 405.515625 9.535156 C 187.121094 9.535156 10.078125 186.578125 10.078125 404.972656 C 10.078125 623.367188 187.121094 800.410156 405.515625 800.410156 C 623.910156 800.410156 800.953125 623.367188 800.953125 404.972656 C 800.953125 186.578125 623.910156 9.535156 405.515625 9.535156 Z M 405.515625 9.535156 " clip-rule="nonzero"/></clipPath><clipPath id="b6b3c47d5d"><path d="M 374.871094 234.960938 L 436.160156 234.960938 L 436.160156 775.320312 L 374.871094 775.320312 Z M 374.871094 234.960938 " clip-rule="nonzero"/></clipPath><clipPath id="5dd1c78a55"><path d="M 405.515625 234.960938 C 422.441406 234.960938 436.160156 248.679688 436.160156 265.605469 L 436.160156 744.457031 C 436.160156 761.382812 422.441406 775.101562 405.515625 775.101562 C 388.589844 775.101562 374.871094 761.382812 374.871094 744.457031 L 374.871094 265.605469 C 374.871094 248.679688 388.589844 234.960938 405.515625 234.960938 Z M 405.515625 234.960938 " clip-rule="nonzero"/></clipPath><clipPath id="3ff22f790e"><path d="M 387 364 L 600 364 L 600 577 L 387 577 Z M 387 364 " clip-rule="nonzero"/></clipPath><clipPath id="932de73f70"><path d="M 568.75 351.972656 L 612.085938 395.308594 L 418.078125 589.316406 L 374.742188 545.980469 Z M 568.75 351.972656 " clip-rule="nonzero"/></clipPath><clipPath id="af1452c9bf"><path d="M 590.417969 373.640625 C 602.386719 385.609375 602.386719 405.011719 590.417969 416.980469 L 439.878906 567.519531 C 427.910156 579.488281 408.507812 579.488281 396.539062 567.519531 C 384.570312 555.550781 384.570312 536.148438 396.539062 524.179688 L 547.078125 373.640625 C 559.046875 361.671875 578.449219 361.671875 590.417969 373.640625 Z M 590.417969 373.640625 " clip-rule="nonzero"/></clipPath><clipPath id="3f3f8bccbf"><path d="M 211 364 L 424 364 L 424 577 L 211 577 Z M 211 364 " clip-rule="nonzero"/></clipPath><clipPath id="5ecf0ce89a"><path d="M 198.945312 395.308594 L 242.28125 351.96875 L 436.292969 545.980469 L 392.953125 589.316406 Z M 198.945312 395.308594 " clip-rule="nonzero"/></clipPath><clipPath id="f885d445c1"><path d="M 220.613281 373.640625 C 232.582031 361.671875 251.984375 361.671875 263.953125 373.640625 L 414.492188 524.179688 C 426.460938 536.148438 426.460938 555.550781 414.492188 567.519531 C 402.523438 579.488281 383.121094 579.488281 371.152344 567.519531 L 220.613281 416.976562 C 208.644531 405.011719 208.644531 385.605469 220.613281 373.640625 Z M 220.613281 373.640625 " clip-rule="nonzero"/></clipPath><clipPath id="37df27acad"><path d="M 523.355469 293.855469 L 667.480469 293.855469 L 667.480469 437.980469 L 523.355469 437.980469 Z M 523.355469 293.855469 " clip-rule="nonzero"/></clipPath><clipPath id="b6e98195ba"><path d="M 595.417969 293.855469 C 555.617188 293.855469 523.355469 326.121094 523.355469 365.917969 C 523.355469 405.71875 555.617188 437.980469 595.417969 437.980469 C 635.214844 437.980469 667.480469 405.71875 667.480469 365.917969 C 667.480469 326.121094 635.214844 293.855469 595.417969 293.855469 Z M 595.417969 293.855469 " clip-rule="nonzero"/></clipPath><clipPath id="ea730af4cf"><path d="M 143.273438 293.855469 L 287.398438 293.855469 L 287.398438 437.980469 L 143.273438 437.980469 Z M 143.273438 293.855469 " clip-rule="nonzero"/></clipPath><clipPath id="33a80082b5"><path d="M 215.335938 293.855469 C 175.539062 293.855469 143.273438 326.121094 143.273438 365.917969 C 143.273438 405.71875 175.539062 437.980469 215.335938 437.980469 C 255.136719 437.980469 287.398438 405.71875 287.398438 365.917969 C 287.398438 326.121094 255.136719 293.855469 215.335938 293.855469 Z M 215.335938 293.855469 " clip-rule="nonzero"/></clipPath><clipPath id="bcc372769c"><path d="M 333.453125 137.222656 L 477.578125 137.222656 L 477.578125 281.347656 L 333.453125 281.347656 Z M 333.453125 137.222656 " clip-rule="nonzero"/></clipPath><clipPath id="0d616993d5"><path d="M 405.515625 137.222656 C 365.71875 137.222656 333.453125 169.488281 333.453125 209.285156 C 333.453125 249.085938 365.71875 281.347656 405.515625 281.347656 C 445.316406 281.347656 477.578125 249.085938 477.578125 209.285156 C 477.578125 169.488281 445.316406 137.222656 405.515625 137.222656 Z M 405.515625 137.222656 " clip-rule="nonzero"/></clipPath></defs><g clip-path="url(#c42c5498fc)"><g clip-path="url(#6c5e228fee)"><path fill="#abe8ff" d="M 10.078125 9.535156 L 800.953125 9.535156 L 800.953125 800.410156 L 10.078125 800.410156 Z M 10.078125 9.535156 " fill-opacity="1" fill-rule="nonzero"/><path stroke-linecap="butt" transform="matrix(0.75, 0, 0, 0.75, 10.078583, 9.534774)" fill="none" stroke-linejoin="miter" d="M 527.249416 0.0005102 C 236.056693 0.0005102 -0.000610551 236.057814 -0.000610551 527.250537 C -0.000610551 818.44326 236.056693 1054.500563 527.249416 1054.500563 C 818.442139 1054.500563 1054.499442 818.44326 1054.499442 527.250537 C 1054.499442 236.057814 818.442139 0.0005102 527.249416 0.0005102 Z M 527.249416 0.0005102 " stroke="#222222" stroke-width="40" stroke-opacity="1" stroke-miterlimit="4"/></g></g><g clip-path="url(#fb0d2eb2c7)"><g clip-path="url(#c1cffb73f9)"><path fill="#ffffff" d="M 612.089844 300.648438 L 783.582031 300.648438 L 783.582031 487.550781 L 612.089844 487.550781 Z M 612.089844 300.648438 " fill-opacity="1" fill-rule="nonzero"/></g></g><g clip-path="url(#858c992e89)"><g clip-path="url(#62901286af)"><g clip-path="url(#49037f000a)"><path fill="#ffffff" d="M 632.699219 583.082031 L 143.527344 272.152344 L 353.546875 -58.265625 L 842.71875 252.664062 Z M 632.699219 583.082031 " fill-opacity="1" fill-rule="nonzero"/></g></g></g><g clip-path="url(#bef6bc11f9)"><g clip-path="url(#f905c1d7b8)"><g clip-path="url(#958635b2a9)"><path fill="#ffffff" d="M 646.644531 690.421875 L 36.886719 302.847656 L 232.972656 -5.648438 L 842.730469 381.929688 Z M 646.644531 690.421875 " fill-opacity="1" fill-rule="nonzero"/></g></g></g><g clip-path="url(#df45583b9a)"><g clip-path="url(#6ffe6e8557)"><g clip-path="url(#47f978113a)"><path fill="#ffffff" d="M 113.183594 175.101562 L 741.542969 565.53125 L 595.628906 800.367188 L -32.730469 409.933594 Z M 113.183594 175.101562 " fill-opacity="1" fill-rule="nonzero"/></g></g></g><g clip-path="url(#e325197b64)"><g clip-path="url(#20b47d7ba7)"><path stroke-linecap="butt" transform="matrix(0.75, 0, 0, 0.75, 10.078583, 9.534774)" fill="none" stroke-linejoin="miter" d="M 527.249416 0.0005102 C 236.056693 0.0005102 -0.000610551 236.057814 -0.000610551 527.250537 C -0.000610551 818.44326 236.056693 1054.500563 527.249416 1054.500563 C 818.442139 1054.500563 1054.499442 818.44326 1054.499442 527.250537 C 1054.499442 236.057814 818.442139 0.0005102 527.249416 0.0005102 Z M 527.249416 0.0005102 " stroke="#222222" stroke-width="100" stroke-opacity="1" stroke-miterlimit="4"/></g></g><g clip-path="url(#b6b3c47d5d)"><g clip-path="url(#5dd1c78a55)"><path fill="#222222" d="M 374.871094 234.960938 L 436.160156 234.960938 L 436.160156 775.078125 L 374.871094 775.078125 Z M 374.871094 234.960938 " fill-opacity="1" fill-rule="nonzero"/></g></g><g clip-path="url(#3ff22f790e)"><g clip-path="url(#932de73f70)"><g clip-path="url(#af1452c9bf)"><path fill="#222222" d="M 568.75 351.972656 L 612.085938 395.308594 L 418.25 589.148438 L 374.910156 545.808594 Z M 568.75 351.972656 " fill-opacity="1" fill-rule="nonzero"/></g></g></g><g clip-path="url(#3f3f8bccbf)"><g clip-path="url(#5ecf0ce89a)"><g clip-path="url(#f885d445c1)"><path fill="#222222" d="M 198.945312 395.308594 L 242.28125 351.96875 L 436.121094 545.808594 L 392.785156 589.148438 Z M 198.945312 395.308594 " fill-opacity="1" fill-rule="nonzero"/></g></g></g><g clip-path="url(#37df27acad)"><g clip-path="url(#b6e98195ba)"><path fill="#222222" d="M 523.355469 293.855469 L 667.480469 293.855469 L 667.480469 437.980469 L 523.355469 437.980469 Z M 523.355469 293.855469 " fill-opacity="1" fill-rule="nonzero"/></g></g><g clip-path="url(#ea730af4cf)"><g clip-path="url(#33a80082b5)"><path fill="#222222" d="M 143.273438 293.855469 L 287.398438 293.855469 L 287.398438 437.980469 L 143.273438 437.980469 Z M 143.273438 293.855469 " fill-opacity="1" fill-rule="nonzero"/></g></g><g clip-path="url(#bcc372769c)"><g clip-path="url(#0d616993d5)"><path fill="#222222" d="M 333.453125 137.222656 L 477.578125 137.222656 L 477.578125 281.347656 L 333.453125 281.347656 Z M 333.453125 137.222656 " fill-opacity="1" fill-rule="nonzero"/></g></g></svg>